<?xml version="1.0" standalone="no"?>
<!DOCTYPE svg PUBLIC "-//W3C//DTD SVG 20010904//EN"
 "http://www.w3.org/TR/2001/REC-SVG-20010904/DTD/svg10.dtd">
<svg version="1.0" xmlns="http://www.w3.org/2000/svg"
 width="810.000000pt" height="1280.000000pt" viewBox="0 0 810.000000 1280.000000"
 preserveAspectRatio="xMidYMid meet">
<metadata>
Created by potrace 1.15, written by Peter Selinger 2001-2017
</metadata>
<g transform="translate(0.000000,1280.000000) scale(0.100000,-0.100000)"
fill="#000000" stroke="none">
<path d="M4025 12334 c-882 -32 -1665 -314 -2267 -815 -730 -608 -1220 -1579
-1318 -2613 -44 -464 49 -968 288 -1566 168 -422 393 -861 842 -1640 226 -392
315 -576 395 -813 62 -186 84 -308 96 -537 11 -217 23 -338 43 -414 51 -191
196 -460 334 -620 60 -69 72 -97 72 -174 0 -18 7 -46 15 -63 14 -26 14 -42 1
-152 -37 -303 -32 -385 26 -439 32 -30 47 -76 48 -145 0 -58 -7 -72 -47 -88
-39 -16 -68 -73 -58 -112 3 -14 29 -57 56 -96 47 -67 50 -76 46 -119 -3 -33
-13 -58 -33 -83 -84 -105 -87 -119 -36 -184 58 -73 72 -96 78 -137 10 -66 -3
-103 -52 -147 -55 -50 -71 -94 -50 -136 18 -34 52 -61 78 -61 38 0 48 -26 46
-128 -1 -77 2 -104 17 -132 42 -80 401 -413 464 -430 27 -7 52 -28 98 -82 34
-40 111 -121 170 -179 l108 -106 125 -41 c212 -68 265 -77 450 -76 122 1 179
5 220 18 30 9 127 35 215 57 "/>
</g>
</svg>
